#Comment line ignore any data following # character 
#Hierarchical Translation and Rotation (.htr) file 
[Header]	
#Header keywords are followed by a single value 
FileType HTR		#Single word string
DataType HTRS		#Translation followed by rotation and scale data
FileVersion 1		#integer
NumSegments 64		#integer
NumFrames 3		#integer
DataFrameRate 30		#integer, data frame rate in this file
EulerRotationOrder ZYX
CalibrationUnits mm
RotationUnits Degrees
GlobalAxisofGravity Y
BoneLengthAxis Y
ScaleFactor 1.00
[SegmentNames&Hierarchy]
#CHILD	PARENT
Pinger_Root GLOBAL
Pelvis Pinger_Root
L_Hip Pelvis
R_Hip Pelvis
Rear_Leg01 Pelvis
Spine1 Pelvis
L_Leg01 L_Hip
L_Leg02 L_Leg01
L_Leg03 L_Leg02
L_Foot L_Leg03
L_Toe1_01 L_Foot
L_Toe2_01 L_Foot
L_Toe3_01 L_Foot
planeAlignerLeft L_Foot
L_Toe1_02 L_Toe1_01
L_Toe1_03 L_Toe1_02
L_Toe2_02 L_Toe2_01
L_Toe2_03 L_Toe2_02
L_Toe3_02 L_Toe3_01
L_Toe3_03 L_Toe3_02
planeLockWeightLeft planeAlignerLeft
R_Leg01 R_Hip
R_Leg02 R_Leg01
R_Leg03 R_Leg02
R_Foot R_Leg03
planeAlignerRight R_Foot
R_Toe1_01 R_Foot
R_Toe2_01 R_Foot
R_Toe3_01 R_Foot
planeLockWeightRight planeAlignerRight
R_Toe1_02 R_Toe1_01
R_Toe1_03 R_Toe1_02
R_Toe2_02 R_Toe2_01
R_Toe2_03 R_Toe2_02
R_Toe3_02 R_Toe3_01
R_Toe3_03 R_Toe3_02
Rear_Leg02 Rear_Leg01
Rear_Leg03 Rear_Leg02
Rear_Leg04 Rear_Leg03
Rear_Foot Rear_Leg04
planeAlignerCenter Rear_Foot
Rear_Toe1_01 Rear_Foot
Rear_Toe2_01 Rear_Foot
Rear_Toe3_01 Rear_Foot
planeLockWeightCenter planeAlignerCenter
Rear_Toe1_02 Rear_Toe1_01
Rear_Toe1_03 Rear_Toe1_02
Rear_Toe2_02 Rear_Toe2_01
Rear_Toe2_03 Rear_Toe2_02
Rear_Toe3_02 Rear_Toe3_01
Rear_Toe3_03 Rear_Toe3_02
Back_Bone Spine1
Head Spine1
Motor_Bone Back_Bone
Ping_Mechanism Back_Bone
BN_LookIK Head
bottomMouth Head
L_Mouth01 Head
L_mouthFront Head
mouthGun Head
R_Mouth01 Head
R_mouthFront Head
TopMouth Head
weapon_bone Head
[BasePosition]
#SegmentName Tx, Ty, Tz, Rx, Ry, Rz, BoneLength
Pinger_Root 0.000000 0.000000 0.000000 -90.000000 0.000000 0.000000 10.000000 
Pelvis 0.000000 0.000000 0.000000 0.000000 0.000000 0.000000 10.000000 
L_Hip 0.000000 0.000000 0.000000 0.000000 0.000000 0.000000 10.000000 
R_Hip 0.000000 0.000000 0.000000 0.000000 0.000000 0.000000 10.000000 
Rear_Leg01 0.000000 0.000000 0.000000 0.000000 0.000000 0.000000 10.000000 
Spine1 0.000000 0.000000 0.000000 0.000000 0.000000 0.000000 10.000000 
L_Leg01 0.000000 0.000000 0.000000 0.000000 0.000000 0.000000 10.000000 
L_Leg02 0.000000 0.000000 0.000000 0.000000 0.000000 0.000000 10.000000 
L_Leg03 0.000000 0.000000 0.000000 0.000000 0.000000 0.000000 10.000000 
L_Foot 0.000000 0.000000 0.000000 0.000000 0.000000 0.000000 10.000000 
L_Toe1_01 0.000000 0.000000 0.000000 0.000000 0.000000 0.000000 10.000000 
L_Toe2_01 0.000000 0.000000 0.000000 0.000000 0.000000 0.000000 10.000000 
L_Toe3_01 0.000000 0.000000 0.000000 0.000000 0.000000 0.000000 10.000000 
planeAlignerLeft 0.000000 0.000000 0.000000 0.000000 0.000000 0.000000 10.000000 
L_Toe1_02 0.000000 0.000000 0.000000 0.000000 0.000000 0.000000 10.000000 
L_Toe1_03 0.000000 0.000000 0.000000 0.000000 0.000000 0.000000 10.000000 
L_Toe2_02 0.000000 0.000000 0.000000 0.000000 0.000000 0.000000 10.000000 
L_Toe2_03 0.000000 0.000000 0.000000 0.000000 0.000000 0.000000 10.000000 
L_Toe3_02 0.000000 0.000000 0.000000 0.000000 0.000000 0.000000 10.000000 
L_Toe3_03 0.000000 0.000000 0.000000 0.000000 0.000000 0.000000 10.000000 
planeLockWeightLeft 0.000000 0.000000 0.000000 0.000000 0.000000 0.000000 10.000000 
R_Leg01 0.000000 0.000000 0.000000 0.000000 0.000000 0.000000 10.000000 
R_Leg02 0.000000 0.000000 0.000000 0.000000 0.000000 0.000000 10.000000 
R_Leg03 0.000000 0.000000 0.000000 0.000000 0.000000 0.000000 10.000000 
R_Foot 0.000000 0.000000 0.000000 0.000000 0.000000 0.000000 10.000000 
planeAlignerRight 0.000000 0.000000 0.000000 0.000000 0.000000 0.000000 10.000000 
R_Toe1_01 0.000000 0.000000 0.000000 0.000000 0.000000 0.000000 10.000000 
R_Toe2_01 0.000000 0.000000 0.000000 0.000000 0.000000 0.000000 10.000000 
R_Toe3_01 0.000000 0.000000 0.000000 0.000000 0.000000 0.000000 10.000000 
planeLockWeightRight 0.000000 0.000000 0.000000 0.000000 0.000000 0.000000 10.000000 
R_Toe1_02 0.000000 0.000000 0.000000 0.000000 0.000000 0.000000 10.000000 
R_Toe1_03 0.000000 0.000000 0.000000 0.000000 0.000000 0.000000 10.000000 
R_Toe2_02 0.000000 0.000000 0.000000 0.000000 0.000000 0.000000 10.000000 
R_Toe2_03 0.000000 0.000000 0.000000 0.000000 0.000000 0.000000 10.000000 
R_Toe3_02 0.000000 0.000000 0.000000 0.000000 0.000000 0.000000 10.000000 
R_Toe3_03 0.000000 0.000000 0.000000 0.000000 0.000000 0.000000 10.000000 
Rear_Leg02 0.000000 0.000000 0.000000 0.000000 0.000000 0.000000 10.000000 
Rear_Leg03 0.000000 0.000000 0.000000 0.000000 0.000000 0.000000 10.000000 
Rear_Leg04 0.000000 0.000000 0.000000 0.000000 0.000000 0.000000 10.000000 
Rear_Foot 0.000000 0.000000 0.000000 0.000000 0.000000 0.000000 10.000000 
planeAlignerCenter 0.000000 0.000000 0.000000 0.000000 0.000000 0.000000 10.000000 
Rear_Toe1_01 0.000000 0.000000 0.000000 0.000000 0.000000 0.000000 10.000000 
Rear_Toe2_01 0.000000 0.000000 0.000000 0.000000 0.000000 0.000000 10.000000 
Rear_Toe3_01 0.000000 0.000000 0.000000 0.000000 0.000000 0.000000 10.000000 
planeLockWeightCenter 0.000000 0.000000 0.000000 0.000000 0.000000 0.000000 10.000000 
Rear_Toe1_02 0.000000 0.000000 0.000000 0.000000 0.000000 0.000000 10.000000 
Rear_Toe1_03 0.000000 0.000000 0.000000 0.000000 0.000000 0.000000 10.000000 
Rear_Toe2_02 0.000000 0.000000 0.000000 0.000000 0.000000 0.000000 10.000000 
Rear_Toe2_03 0.000000 0.000000 0.000000 0.000000 0.000000 0.000000 10.000000 
Rear_Toe3_02 0.000000 0.000000 0.000000 0.000000 0.000000 0.000000 10.000000 
Rear_Toe3_03 0.000000 0.000000 0.000000 0.000000 0.000000 0.000000 10.000000 
Back_Bone 0.000000 0.000000 0.000000 0.000000 0.000000 0.000000 10.000000 
Head 0.000000 0.000000 0.000000 0.000000 0.000000 0.000000 10.000000 
Motor_Bone 0.000000 0.000000 0.000000 0.000000 0.000000 0.000000 10.000000 
Ping_Mechanism 0.000000 0.000000 0.000000 0.000000 0.000000 0.000000 10.000000 
BN_LookIK 0.000000 0.000000 0.000000 0.000000 0.000000 0.000000 10.000000 
bottomMouth 0.000000 0.000000 0.000000 0.000000 0.000000 0.000000 10.000000 
L_Mouth01 0.000000 0.000000 0.000000 0.000000 0.000000 0.000000 10.000000 
L_mouthFront 0.000000 0.000000 0.000000 0.000000 0.000000 0.000000 10.000000 
mouthGun 0.000000 0.000000 0.000000 0.000000 0.000000 0.000000 10.000000 
R_Mouth01 0.000000 0.000000 0.000000 0.000000 0.000000 0.000000 10.000000 
R_mouthFront 0.000000 0.000000 0.000000 0.000000 0.000000 0.000000 10.000000 
TopMouth 0.000000 0.000000 0.000000 0.000000 0.000000 0.000000 10.000000 
weapon_bone 0.000000 0.000000 0.000000 0.000000 0.000000 0.000000 10.000000 
#Beginning of Data. Separated by tabs
#Fr	Tx	Ty	Tz	Rx	Ry	Rz	SF
[Pinger_Root]
38 4796.294922 0.000000 0.000000 -0.000075 -0.000000 -0.000020 4796.294434
39 4925.924316 0.000000 0.000000 -0.000075 -0.000000 -0.000020 4925.924316
40 5055.554199 0.000000 0.000000 -0.000075 -0.000000 -0.000020 5055.554199
[Pelvis]
38 315.318420 -502.703125 5286.959961 -6.602626 -88.918999 -15.515828 5320.158203
39 332.402985 -508.438995 5273.019043 -91.446510 -86.594643 67.365547 5307.893066
40 351.706787 -501.293427 5236.275391 -100.008568 -83.013626 73.244453 5271.960938
[L_Hip]
38 5.766392 125.831482 872.656799 -178.250168 -81.786369 87.376007 881.701050
39 5.766392 125.831482 872.656799 -178.250168 -81.786369 87.376007 881.701050
40 5.766392 125.831482 872.656799 -178.250168 -81.786369 87.376007 881.701050
[R_Hip]
38 5.765438 125.836372 -872.654907 -1.748770 81.786041 87.376961 881.699829
39 5.765438 125.836372 -872.654907 -1.748770 81.786041 87.376961 881.699829
40 5.765438 125.836372 -872.654907 -1.748770 81.786041 87.376961 881.699829
[Rear_Leg01]
38 -192.298416 -925.602966 -0.001907 -159.112976 -33.559944 171.485519 945.367432
39 -192.298416 -925.602966 -0.001907 -161.876099 -35.879829 170.395126 945.367432
40 -192.298416 -925.602966 -0.001907 -165.627274 -38.179886 169.929672 945.367432
[Spine1]
38 290.604584 5.007505 0.000477 6.953659 -6.669014 32.650768 290.647736
39 290.604584 5.007505 0.000477 9.273768 -6.761707 29.144711 290.647736
40 290.604584 5.007505 0.000477 12.100737 -7.031655 25.094790 290.647736
[L_Leg01]
38 761.932007 -0.002384 -0.069261 84.234024 -41.147629 -86.121185 761.932068
39 761.932007 -0.002384 -0.069261 83.226471 -43.198120 -89.396126 761.932068
40 761.932007 -0.002384 -0.069261 83.341782 -50.380165 -92.082909 761.932068
[L_Leg02]
38 1441.140503 -0.000954 -0.000715 1.234742 -0.107649 -100.077713 1441.140503
39 1441.140503 -0.000954 -0.000715 1.367189 -0.106243 -97.733200 1441.140503
40 1441.140503 -0.000954 -0.000715 1.233043 -0.109134 -100.939636 1441.140503
[L_Leg03]
38 1686.963989 -0.000715 -0.000954 -0.036367 0.017205 120.602470 1686.963989
39 1686.963989 -0.000715 -0.000954 -0.042980 0.019357 121.426384 1686.963989
40 1686.963989 -0.000715 -0.000954 -0.036386 0.017163 120.471519 1686.963989
[L_Foot]
38 3041.570068 -30.715107 11.297464 2.691801 9.205508 27.310232 3041.746094
39 3041.570068 -30.715107 11.297464 11.496134 9.013315 34.730656 3041.746094
40 3041.570068 -30.715107 11.297464 18.896919 8.436438 42.917664 3041.746094
[L_Toe1_01]
38 -188.216690 -224.732346 -21.137953 88.656654 -1.682126 -139.845917 293.899567
39 -188.216690 -224.732346 -21.137953 88.667488 -1.707633 -139.803665 293.899567
40 -188.216690 -224.732346 -21.137953 88.678299 -1.733153 -139.761414 293.899567
[L_Toe2_01]
38 200.746536 -219.926590 148.838394 -73.539177 -3.722984 -74.150429 332.896027
39 200.746536 -219.926590 148.838394 -73.664017 -3.694314 -73.300995 332.896027
40 200.746536 -219.926590 148.838394 -73.752769 -3.668532 -72.776360 332.896027
[L_Toe3_01]
38 188.832520 -219.859131 -191.078659 -110.949448 4.435057 -75.233879 347.140900
39 188.832520 -219.859131 -191.078659 -110.790268 4.402562 -74.379257 347.140900
40 188.832520 -219.859131 -191.078659 -110.676125 4.372775 -73.855110 347.140900
[planeAlignerLeft]
38 63.060284 -765.624268 -4.423796 0.000000 -90.000000 -90.001900 768.229553
39 88.485733 -762.206604 -6.968050 0.000000 -90.000000 -90.001900 767.357300
40 110.026299 -760.435730 -9.057592 0.000000 -90.000000 -90.001900 768.407715
[L_Toe1_02]
38 413.761139 0.000477 0.000000 0.001463 -16.705837 0.001463 413.761139
39 413.761139 0.000477 0.000000 0.001467 -16.247591 0.001467 413.761139
40 413.761139 0.000477 0.000000 0.001472 -15.789362 0.001472 413.761139
[L_Toe1_03]
38 464.317322 0.000358 -0.000089 -179.996140 78.261055 -179.992630 464.317322
39 464.317322 0.000358 -0.000089 -179.996689 76.993980 -179.993164 464.317322
40 464.317322 0.000358 -0.000089 -179.997131 75.726982 -179.993607 464.317322
[L_Toe2_02]
38 342.235809 -0.000477 0.000238 0.001180 -77.760719 0.001180 342.235809
39 342.235809 -0.000477 0.000238 0.001180 -77.681297 0.001180 342.235809
40 342.235809 -0.000477 0.000238 0.001181 -77.601868 0.001181 342.235809
[L_Toe2_03]
38 420.210846 -0.000715 0.000000 -179.996750 76.850540 -179.993225 420.210846
39 420.210846 -0.000715 0.000000 -179.996597 77.239807 -179.993073 420.210846
40 420.210846 -0.000715 0.000000 -179.996429 77.629143 -179.992905 420.210846
[L_Toe3_02]
38 329.270111 0.000954 0.000000 0.001177 -81.443886 0.001177 329.270111
39 329.270111 0.000954 0.000000 0.001177 -81.370255 0.001177 329.270111
40 329.270111 0.000954 0.000000 0.001177 -81.296600 0.001177 329.270111
[L_Toe3_03]
38 439.137451 -0.001907 0.000954 -179.997498 74.517731 -179.993973 439.137451
39 439.137451 -0.001907 0.000954 -179.997391 74.865524 -179.993881 439.137451
40 439.137451 -0.001907 0.000954 -179.997299 75.213287 -179.993774 439.137451
[planeLockWeightLeft]
38 0.000281 0.098228 0.076056 -0.011826 -0.004376 0.005620 0.124231
39 0.000305 0.098267 0.076065 -0.011826 -0.004376 0.005620 0.124267
40 103.998741 0.098267 0.076065 -0.011826 -0.004376 0.005620 103.998817
[R_Leg01]
38 761.455627 -0.001907 -0.000358 134.990753 10.761281 72.308815 761.455688
39 761.455627 -0.001907 -0.000358 135.127304 6.943203 74.306732 761.455688
40 761.455627 -0.001907 -0.000358 134.422440 2.360278 75.624275 761.455688
[R_Leg02]
38 1441.140625 0.000000 -0.000238 0.212785 0.026701 -80.454559 1441.140625
39 1441.140625 0.000000 -0.000238 0.208693 0.026166 -81.913467 1441.140625
40 1441.140625 0.000000 -0.000238 0.207659 0.024356 -84.760429 1441.140625
[R_Leg03]
38 1686.963989 0.000954 0.001431 -0.063763 0.012372 93.373299 1686.963989
39 1686.963989 0.000954 0.001431 -0.056586 0.013008 95.074326 1686.963989
40 1686.963989 0.000954 0.001431 -0.047726 0.011763 97.194267 1686.963989
[R_Foot]
38 3041.560059 -30.531288 -11.204481 19.171347 -7.921542 68.823021 3041.734131
39 3041.560059 -30.531288 -11.204481 18.064489 -7.315706 69.899651 3041.734131
40 3041.560059 -30.531288 -11.204481 16.970753 -6.689496 70.962883 3041.734131
[planeAlignerRight]
38 29.168915 -670.683533 13.369171 0.000000 -89.960434 -90.005180 671.450684
39 23.852903 -698.019653 10.727875 0.000000 -89.960434 -90.005180 698.509521
40 18.536896 -725.355774 8.086578 0.000000 -89.960434 -90.005180 725.637695
[R_Toe1_01]
38 -188.383347 -224.864899 21.052242 90.751297 1.372423 -162.150818 294.101532
39 -188.383347 -224.864899 21.052242 90.797035 1.464607 -159.772568 294.101532
40 -188.383347 -224.864899 21.052242 90.846619 1.554889 -157.392090 294.101532
[R_Toe2_01]
38 200.637817 -220.002121 -148.787384 -102.625099 10.442825 -48.760468 332.857574
39 200.637817 -220.002121 -148.787384 -103.059715 10.238204 -50.698711 332.857574
40 200.637817 -220.002121 -148.787384 -103.486641 10.019308 -52.633499 332.857574
[R_Toe3_01]
38 188.606735 -220.092957 191.126343 -72.991562 -14.383905 -51.023087 347.192566
39 188.606735 -220.092957 191.126343 -72.569992 -13.789747 -52.842251 347.192566
40 188.606735 -220.092957 191.126343 -72.121513 -13.188040 -54.733635 347.192566
[planeLockWeightRight]
38 999.999329 -0.000105 0.076109 -0.011823 -0.004379 -0.000027 999.999329
39 999.999329 -0.000063 0.076118 -0.011823 -0.004379 -0.000027 999.999329
40 999.999329 -0.000021 0.076127 -0.011823 -0.004379 -0.000027 999.999329
[R_Toe1_02]
38 413.762085 0.000477 -0.000119 0.001415 -22.028307 0.001415 413.762085
39 413.762085 0.000477 -0.000119 0.001410 -22.691141 0.001410 413.762085
40 413.762085 0.000477 -0.000119 0.001405 -23.354013 0.001405 413.762085
[R_Toe1_03]
38 464.317810 0.000000 0.001088 -0.010878 82.778465 -0.007374 464.317810
39 464.317810 0.000000 0.001088 0.002414 79.560364 0.004171 464.317810
40 464.317810 0.000000 0.001088 0.009870 76.342194 0.009870 464.317810
[R_Toe2_02]
38 342.234741 -0.000954 0.000238 -0.002344 -74.804741 -0.002344 342.234741
39 342.234741 -0.000954 0.000238 -0.001640 -74.008392 -0.001640 342.234741
40 342.234741 -0.000954 0.000238 -0.000935 -73.211937 -0.000935 342.234741
[R_Toe2_03]
38 420.210846 0.000715 -0.000268 -179.970062 87.662338 -179.973557 420.210846
39 420.210846 0.000715 -0.000268 0.000000 89.888092 -0.003497 420.210846
40 420.210846 0.000715 -0.000268 -0.029376 87.883636 -0.032873 420.210846
[R_Toe3_02]
38 329.270355 -0.000477 -0.000954 0.001180 -78.292625 0.001180 329.270355
39 329.270355 -0.000477 -0.000954 0.001180 -77.817520 0.001180 329.270355
40 329.270355 -0.000477 -0.000954 0.001181 -77.165665 0.001181 329.270355
[R_Toe3_03]
38 439.137939 0.000238 0.001431 -179.985107 86.042107 -179.981598 439.137939
39 439.137939 0.000238 0.001431 -179.970535 87.888443 -179.967026 439.137939
40 439.137939 0.000238 0.001431 0.000000 89.733124 0.003502 439.137939
[Rear_Leg02]
38 1162.777710 -0.029802 0.005960 2.483715 5.615990 -72.100128 1162.777710
39 1162.777710 -0.029802 0.005960 2.408262 4.275191 -66.169693 1162.777710
40 1162.777710 -0.029802 0.005960 1.954460 2.936195 -61.637798 1162.777710
[Rear_Leg03]
38 607.192505 -0.013351 -0.073195 0.005491 0.002006 49.860310 607.192505
39 607.192505 -0.013351 -0.073195 0.004154 0.005396 46.963993 607.192505
40 607.192505 -0.013351 -0.073195 0.004057 0.005470 44.922733 607.192505
[Rear_Leg04]
38 995.874512 -0.020504 -0.011921 -0.033421 -0.014144 33.050098 995.874573
39 995.874512 -0.020504 -0.011921 -0.032898 -0.015320 28.984875 995.874573
40 995.874512 -0.020504 -0.011921 -0.031379 -0.011344 26.036676 995.874573
[Rear_Foot]
38 3096.176270 -0.067472 -0.041425 169.373077 55.408909 -14.716631 3096.176270
39 3096.176270 -0.067472 -0.041425 171.812302 54.816013 -10.915605 3096.176270
40 3096.176270 -0.067472 -0.041425 174.141479 54.133167 -7.219780 3096.176270
[planeAlignerCenter]
38 0.514374 92.243980 -712.666687 0.000009 0.000003 -179.999985 718.611877
39 0.512238 97.257469 -724.602722 0.000009 0.000003 -179.999985 731.100769
40 0.507698 101.549149 -742.716553 0.000009 0.000003 -179.999985 749.626831
[Rear_Toe1_01]
38 0.653352 83.966492 -371.173737 0.063779 23.029400 90.038536 380.553192
39 0.653352 83.966492 -371.173737 0.064158 24.220467 90.037758 380.553192
40 0.653352 83.966492 -371.173737 0.064523 25.411535 90.036987 380.553192
[Rear_Toe2_01]
38 178.200760 -294.826019 -362.060547 1.200255 47.305466 -69.400864 499.765686
39 178.200760 -294.826019 -362.060547 1.332011 48.351650 -69.221245 499.765686
40 178.200760 -294.826019 -362.060547 1.471594 49.397533 -69.034103 499.765686
[Rear_Toe3_01]
38 -153.359680 -308.780914 -362.060852 -1.491616 47.318985 -113.154236 499.952881
39 -153.359680 -308.780914 -362.060852 -1.640640 48.358990 -113.354599 499.952881
40 -153.359680 -308.780914 -362.060852 -1.798379 49.398655 -113.563324 499.952881
[planeLockWeightCenter]
38 999.999939 0.000181 0.076488 -0.011814 -0.004373 -0.000015 999.999939
39 999.999939 0.000177 0.076501 -0.011814 -0.004373 -0.000015 999.999939
40 999.999939 0.000173 0.076514 -0.011814 -0.004373 -0.000015 999.999939
[Rear_Toe1_02]
38 379.707825 0.194073 0.000477 -0.000767 -33.624729 0.000838 379.707855
39 379.707825 0.194073 0.000477 -0.000767 -33.624729 0.000838 379.707855
40 379.707825 0.194073 0.000477 -0.000767 -33.624729 0.000838 379.707855
[Rear_Toe1_03]
38 500.129700 0.165701 0.000119 -0.004897 68.758347 -0.001339 500.129761
39 500.129700 0.165701 0.000119 -0.004632 66.703453 -0.001061 500.129761
40 500.129700 0.165701 0.000119 -0.004345 63.939804 -0.000755 500.129761
[Rear_Toe2_02]
38 340.494507 0.000238 -0.000954 0.001174 -85.910309 0.001174 340.494507
39 340.494507 0.000238 -0.000954 0.001174 -85.632065 0.001174 340.494507
40 340.494507 0.000238 -0.000954 0.001175 -85.353668 0.001175 340.494507
[Rear_Toe2_03]
38 433.103577 0.000000 0.000238 179.987915 78.848801 179.987915 433.103546
39 433.103577 0.000000 0.000238 179.987610 79.137222 179.987610 433.103546
40 433.103577 0.000000 0.000238 179.986465 80.051117 179.986465 433.103546
[Rear_Toe3_02]
38 340.494141 -0.000358 -0.000477 0.001174 -85.802361 0.001174 340.494171
39 340.494141 -0.000358 -0.000477 0.001175 -85.517601 0.001175 340.494171
40 340.494141 -0.000358 -0.000477 0.001175 -85.232803 0.001175 340.494171
[Rear_Toe3_03]
38 433.103577 0.001431 -0.000238 -179.995682 79.150009 -179.992172 433.103546
39 433.103577 0.001431 -0.000238 -179.995514 79.445473 -179.992004 433.103546
40 433.103577 0.001431 -0.000238 -179.994919 80.368057 -179.991394 433.103546
[Back_Bone]
38 1312.175781 -701.934692 0.000954 2.119731 3.088091 -82.075951 1488.125488
39 1312.175781 -701.934692 0.000954 1.861840 3.118276 -81.621895 1488.125488
40 1312.175781 -701.934692 0.000954 1.604195 3.150501 -81.167984 1488.125488
[Head]
38 1406.159424 809.709290 0.001431 12.165474 -6.071321 -1.338222 1622.625488
39 1406.159424 809.709290 0.001431 11.972705 -5.750686 -0.890652 1622.625488
40 1406.159424 809.709290 0.001431 11.689979 -5.455846 0.430006 1622.625488
[Motor_Bone]
38 1158.364380 -417.834747 0.000477 -5.513593 1.191234 -104.796593 1231.419434
39 1158.364380 -417.834747 0.000477 -3.495568 0.584013 -105.401451 1231.419434
40 1158.364380 -417.834747 0.000477 0.251812 -0.541796 -106.527893 1231.419434
[Ping_Mechanism]
38 1216.528687 -433.849335 4.271414 0.000103 -0.000053 82.120995 1291.582520
39 1228.895752 -444.345551 2.448751 0.000103 -0.000053 82.120995 1306.764648
40 1244.028198 -454.487793 3.733506 0.000103 -0.000053 82.120995 1324.454346
[BN_LookIK]
38 193.241119 1380.371704 -0.002861 0.000000 89.965736 -31.038179 1393.832153
39 193.241119 1380.371704 -0.002861 0.000000 89.965736 -31.038179 1393.832153
40 193.241119 1380.371704 -0.002861 0.000000 89.965736 -31.038179 1393.832153
[bottomMouth]
38 -435.092926 615.759399 -0.000954 -0.000022 0.000016 73.527184 753.966492
39 -435.092926 615.759399 -0.000954 -0.000022 0.000016 73.527184 753.966492
40 -435.092926 615.759399 -0.000954 -0.000022 0.000016 73.527184 753.966492
[L_Mouth01]
38 554.440979 7.658243 838.222046 150.204178 23.759130 109.605339 1005.027161
39 554.440979 7.658243 838.222046 150.204178 23.759130 109.605339 1005.027161
40 554.440979 7.658243 838.222046 150.204178 23.759130 109.605339 1005.027161
[L_mouthFront]
38 551.629089 934.514771 339.150421 0.000081 2.804060 79.119301 1136.941284
39 551.629089 934.514771 339.150421 0.000081 2.804060 79.119301 1136.941284
40 551.629089 934.514771 339.150421 0.000081 2.804060 79.119301 1136.941284
[mouthGun]
38 55.332661 1627.420898 0.000000 0.000023 0.000009 -11.038128 1628.361328
39 55.332661 1627.420898 0.000000 0.000023 0.000009 -11.038128 1628.361328
40 55.332661 1627.420898 0.000000 0.000023 0.000009 -11.038128 1628.361328
[R_Mouth01]
38 554.442383 7.659197 -838.223938 29.795891 -23.759109 109.605331 1005.029541
39 554.442383 7.659197 -838.223938 29.795891 -23.759109 109.605331 1005.029541
40 554.442383 7.659197 -838.223938 29.795891 -23.759109 109.605331 1005.029541
[R_mouthFront]
38 551.629089 934.514282 -339.151367 0.000029 -2.803930 79.119133 1136.941162
39 551.629089 934.514282 -339.151367 0.000029 -2.803930 79.119133 1136.941162
40 551.629089 934.514282 -339.151367 0.000029 -2.803930 79.119133 1136.941162
[TopMouth]
38 461.269867 -56.106091 -0.008583 -0.000059 -0.000268 92.025169 464.669525
39 461.269867 -56.106091 -0.008583 -0.000059 -0.000268 92.025169 464.669525
40 461.269867 -56.106091 -0.008583 -0.000059 -0.000268 92.025169 464.669525
[weapon_bone]
38 -987.239868 1448.372803 0.001431 0.000000 89.965736 -31.038221 1752.833740
39 -987.239868 1448.372803 0.001431 0.000000 89.965736 -31.038221 1752.833740
40 -987.239868 1448.372803 0.001431 0.000000 89.965736 -31.038221 1752.833740
